<?xml version="1.0" encoding="UTF-8"?>
<!DOCTYPE svg PUBLIC "-//W3C//DTD SVG 1.1//EN" "http://www.w3.org/Graphics/SVG/1.1/DTD/svg11.dtd">
<svg xmlns="http://www.w3.org/2000/svg" style="background: transparent; background-color: transparent; color-scheme: light;" xmlns:xlink="http://www.w3.org/1999/xlink" version="1.1" width="681px" height="1241px" viewBox="0 0 681 1241"><defs/><g><g data-cell-id="0"><g data-cell-id="1"><g data-cell-id="title"><g transform="translate(0.5,0.5)"><rect x="160" y="0" width="400" height="40" fill="none" stroke="none" pointer-events="all"/></g><g><g fill="#000000" font-family="Helvetica" font-weight="bold" text-anchor="middle" font-size="20px" style="fill: rgb(0, 0, 0);"><text x="360" y="26">图片懒加载完整流程（插件化优化版）</text></g></g></g><g data-cell-id="stage1"><g transform="translate(0.5,0.5)"><rect x="0" y="60" width="180" height="30" fill="#fff2cc" stroke="#d6b656" pointer-events="all" style="fill: rgb(255, 242, 204); stroke: rgb(214, 182, 86);"/></g><g><g fill="#000000" font-family="Helvetica" font-weight="bold" font-size="14px" style="fill: rgb(0, 0, 0);"><text x="2" y="80">阶段1：应用初始化</text></g></g></g><g data-cell-id="2"><g transform="translate(0.5,0.5)"><rect x="240" y="60" width="200" height="50" rx="7.5" ry="7.5" fill="#d5e8d4" stroke="#82b366" pointer-events="all" style="fill: rgb(213, 232, 212); stroke: rgb(130, 179, 102);"/></g><g><g fill="#000000" font-family="Helvetica" font-weight="bold" text-anchor="middle" font-size="13px" style="fill: rgb(0, 0, 0);"><text x="340" y="90.5">main.ts 创建 Vue 应用</text></g></g></g><g data-cell-id="3"><g transform="translate(0.5,0.5)"><rect x="240" y="130" width="200" height="50" rx="7.5" ry="7.5" fill="#dae8fc" stroke="#6c8ebf" pointer-events="all" style="fill: rgb(218, 232, 252); stroke: rgb(108, 142, 191);"/></g><g><g fill="#000000" font-family="Helvetica" text-anchor="middle" font-size="13px" style="fill: rgb(0, 0, 0);"><text x="340" y="152.5">app.use(lazyPlugin)</text><text x="340" y="168.5">注册懒加载插件</text></g></g></g><g data-cell-id="4"><g transform="translate(0.5,0.5)"><rect x="210" y="200" width="260" height="60" rx="9" ry="9" fill="#e1d5e7" stroke="#9673a6" pointer-events="all" style="fill: rgb(225, 213, 231); stroke: rgb(150, 115, 166);"/></g><g><g fill="#000000" font-family="Helvetica" text-anchor="middle" font-size="12px" style="fill: rgb(0, 0, 0);"><text x="340" y="221">directives/index.js</text><text x="340" y="235">install() 方法执行</text><text x="340" y="249">注册全局指令 v-img-lazy</text></g></g></g><g data-cell-id="stage2"><g transform="translate(0.5,0.5)"><rect x="0" y="290" width="180" height="30" fill="#fff2cc" stroke="#d6b656" pointer-events="all" style="fill: rgb(255, 242, 204); stroke: rgb(214, 182, 86);"/></g><g><g fill="#000000" font-family="Helvetica" font-weight="bold" font-size="14px" style="fill: rgb(0, 0, 0);"><text x="2" y="310">阶段2：组件渲染</text></g></g></g><g data-cell-id="5"><g transform="translate(0.5,0.5)"><rect x="260" y="290" width="160" height="50" rx="7.5" ry="7.5" fill="#d5e8d4" stroke="#82b366" pointer-events="all" style="fill: rgb(213, 232, 212); stroke: rgb(130, 179, 102);"/></g><g><g fill="#000000" font-family="Helvetica" text-anchor="middle" font-size="13px" style="fill: rgb(0, 0, 0);"><text x="340" y="320.5">用户访问页面</text></g></g></g><g data-cell-id="6"><g transform="translate(0.5,0.5)"><rect x="240" y="360" width="200" height="50" rx="7.5" ry="7.5" fill="#dae8fc" stroke="#6c8ebf" pointer-events="all" style="fill: rgb(218, 232, 252); stroke: rgb(108, 142, 191);"/></g><g><g fill="#000000" font-family="Helvetica" text-anchor="middle" font-size="13px" style="fill: rgb(0, 0, 0);"><text x="340" y="390.5">Vue 渲染 HomeHot/HomeNew</text></g></g></g><g data-cell-id="7"><g transform="translate(0.5,0.5)"><rect x="230" y="430" width="220" height="50" rx="7.5" ry="7.5" fill="#dae8fc" stroke="#6c8ebf" pointer-events="all" style="fill: rgb(218, 232, 252); stroke: rgb(108, 142, 191);"/></g><g><g fill="#000000" font-family="Helvetica" text-anchor="middle" font-size="12px" style="fill: rgb(0, 0, 0);"><text x="340" y="460">遇到 img v-img-lazy=url</text></g></g></g><g data-cell-id="stage3"><g transform="translate(0.5,0.5)"><rect x="0" y="510" width="180" height="30" fill="#fff2cc" stroke="#d6b656" pointer-events="all" style="fill: rgb(255, 242, 204); stroke: rgb(214, 182, 86);"/></g><g><g fill="#000000" font-family="Helvetica" font-weight="bold" font-size="14px" style="fill: rgb(0, 0, 0);"><text x="2" y="530">阶段3：指令执行</text></g></g></g><g data-cell-id="8"><g transform="translate(0.5,0.5)"><rect x="220" y="510" width="240" height="60" rx="9" ry="9" fill="#fff2cc" stroke="#d6b656" pointer-events="all" style="fill: rgb(255, 242, 204); stroke: rgb(214, 182, 86);"/></g><g><g fill="#000000" font-family="Helvetica" text-anchor="middle" font-size="12px" style="fill: rgb(0, 0, 0);"><text x="340" y="531">触发 mounted 钩子</text><text x="340" y="545">el = img 元素</text><text x="340" y="559">binding.value = 图片URL</text></g></g></g><g data-cell-id="9"><g transform="translate(0.5,0.5)"><rect x="220" y="590" width="240" height="60" rx="9" ry="9" fill="#e1d5e7" stroke="#9673a6" pointer-events="all" style="fill: rgb(225, 213, 231); stroke: rgb(150, 115, 166);"/></g><g><g fill="#000000" font-family="Helvetica" font-weight="bold" text-anchor="middle" font-size="12px" style="fill: rgb(0, 0, 0);"><text x="340" y="618">useIntersectionObserver</text><text x="340" y="632">创建观察器并返回 stop()</text></g></g></g><g data-cell-id="stage4"><g transform="translate(0.5,0.5)"><rect x="0" y="680" width="180" height="30" fill="#fff2cc" stroke="#d6b656" pointer-events="all" style="fill: rgb(255, 242, 204); stroke: rgb(214, 182, 86);"/></g><g><g fill="#000000" font-family="Helvetica" font-weight="bold" font-size="14px" style="fill: rgb(0, 0, 0);"><text x="2" y="700">阶段4：监听与加载</text></g></g></g><g data-cell-id="10"><g transform="translate(0.5,0.5)"><rect x="245" y="680" width="190" height="50" rx="7.5" ry="7.5" fill="#f8cecc" stroke="#b85450" pointer-events="all" style="fill: rgb(248, 206, 204); stroke: rgb(184, 84, 80);"/></g><g><g fill="#000000" font-family="Helvetica" text-anchor="middle" font-size="13px" style="fill: rgb(0, 0, 0);"><text x="340" y="710.5">观察器监听图片位置</text></g></g></g><g data-cell-id="11"><g transform="translate(0.5,0.5)"><rect x="260" y="750" width="160" height="50" rx="7.5" ry="7.5" fill="#f8cecc" stroke="#b85450" pointer-events="all" style="fill: rgb(248, 206, 204); stroke: rgb(184, 84, 80);"/></g><g><g fill="#000000" font-family="Helvetica" font-weight="bold" text-anchor="middle" font-size="13px" style="fill: rgb(0, 0, 0);"><text x="340" y="780.5">用户滚动页面</text></g></g></g><g data-cell-id="12"><g transform="translate(0.5,0.5)"><path d="M 340 820 L 410 860 L 340 900 L 270 860 Z" fill="#ffe6cc" stroke="#d79b00" stroke-miterlimit="10" pointer-events="all" style="fill: rgb(255, 230, 204); stroke: rgb(215, 155, 0);"/></g><g><g fill="#000000" font-family="Helvetica" font-weight="bold" text-anchor="middle" font-size="13px" style="fill: rgb(0, 0, 0);"><text x="340" y="865.5">图片进入视口？</text></g></g></g><g data-cell-id="13"><g transform="translate(0.5,0.5)"><rect x="490" y="835" width="100" height="50" rx="7.5" ry="7.5" fill="#f5f5f5" stroke="#666666" pointer-events="all" style="fill: rgb(245, 245, 245); stroke: rgb(102, 102, 102);"/></g><g><g fill="#000000" font-family="Helvetica" text-anchor="middle" font-size="12px" style="fill: rgb(0, 0, 0);"><text x="540" y="865">继续等待</text></g></g></g><g data-cell-id="14"><g transform="translate(0.5,0.5)"><rect x="245" y="930" width="190" height="60" rx="9" ry="9" fill="#fff2cc" stroke="#d6b656" pointer-events="all" style="fill: rgb(255, 242, 204); stroke: rgb(214, 182, 86);"/></g><g><g fill="#000000" font-family="Helvetica" text-anchor="middle" font-size="12px" style="fill: rgb(0, 0, 0);"><text x="340" y="958">entry.isIntersecting = true</text><text x="340" y="972">回调函数触发</text></g></g></g><g data-cell-id="15"><g transform="translate(0.5,0.5)"><rect x="225" y="1010" width="230" height="60" rx="9" ry="9" fill="#d5e8d4" stroke="#82b366" pointer-events="all" style="fill: rgb(213, 232, 212); stroke: rgb(130, 179, 102);"/></g><g><g fill="#000000" font-family="Helvetica" text-anchor="middle" font-size="12px" style="fill: rgb(0, 0, 0);"><text x="340" y="1038">设置 el.src = binding.value</text><text x="340" y="1052">浏览器开始加载真实图片</text></g></g></g><g data-cell-id="16"><g transform="translate(0.5,0.5)"><rect x="230" y="1090" width="220" height="60" rx="9" ry="9" fill="#f8cecc" stroke="#b85450" pointer-events="all" style="fill: rgb(248, 206, 204); stroke: rgb(184, 84, 80);"/></g><g><g fill="#000000" font-family="Helvetica" font-weight="bold" text-anchor="middle" font-size="13px" style="fill: rgb(0, 0, 0);"><text x="340" y="1117.5">调用 stop()</text><text x="340" y="1133.5">停止观察，释放内存</text></g></g></g><g data-cell-id="17"><g transform="translate(0.5,0.5)"><ellipse cx="340" cy="1205" rx="65" ry="35" fill="#d5e8d4" stroke="#82b366" pointer-events="all" style="fill: rgb(213, 232, 212); stroke: rgb(130, 179, 102);"/></g><g><g fill="#000000" font-family="Helvetica" font-weight="bold" text-anchor="middle" font-size="13px" style="fill: rgb(0, 0, 0);"><text x="340" y="1202.5">完成</text><text x="340" y="1218.5">观察器已销毁</text></g></g></g><g data-cell-id="edge1"><g transform="translate(0.5,0.5)"><path d="M 340 110 L 340 123.63" fill="none" stroke="#000000" stroke-miterlimit="10" pointer-events="stroke" style="stroke: rgb(0, 0, 0);"/><path d="M 340 128.88 L 336.5 121.88 L 340 123.63 L 343.5 121.88 Z" fill="#000000" stroke="#000000" stroke-miterlimit="10" pointer-events="all" style="fill: rgb(0, 0, 0); stroke: rgb(0, 0, 0);"/></g></g><g data-cell-id="edge2"><g transform="translate(0.5,0.5)"><path d="M 340 180 L 340 193.63" fill="none" stroke="#000000" stroke-miterlimit="10" pointer-events="stroke" style="stroke: rgb(0, 0, 0);"/><path d="M 340 198.88 L 336.5 191.88 L 340 193.63 L 343.5 191.88 Z" fill="#000000" stroke="#000000" stroke-miterlimit="10" pointer-events="all" style="fill: rgb(0, 0, 0); stroke: rgb(0, 0, 0);"/></g></g><g data-cell-id="edge3"><g transform="translate(0.5,0.5)"><path d="M 340 260 L 340 283.63" fill="none" stroke="#000000" stroke-miterlimit="10" pointer-events="stroke" style="stroke: rgb(0, 0, 0);"/><path d="M 340 288.88 L 336.5 281.88 L 340 283.63 L 343.5 281.88 Z" fill="#000000" stroke="#000000" stroke-miterlimit="10" pointer-events="all" style="fill: rgb(0, 0, 0); stroke: rgb(0, 0, 0);"/></g></g><g data-cell-id="edge4"><g transform="translate(0.5,0.5)"><path d="M 340 340 L 340 353.63" fill="none" stroke="#000000" stroke-miterlimit="10" pointer-events="stroke" style="stroke: rgb(0, 0, 0);"/><path d="M 340 358.88 L 336.5 351.88 L 340 353.63 L 343.5 351.88 Z" fill="#000000" stroke="#000000" stroke-miterlimit="10" pointer-events="all" style="fill: rgb(0, 0, 0); stroke: rgb(0, 0, 0);"/></g></g><g data-cell-id="edge5"><g transform="translate(0.5,0.5)"><path d="M 340 410 L 340 423.63" fill="none" stroke="#000000" stroke-miterlimit="10" pointer-events="stroke" style="stroke: rgb(0, 0, 0);"/><path d="M 340 428.88 L 336.5 421.88 L 340 423.63 L 343.5 421.88 Z" fill="#000000" stroke="#000000" stroke-miterlimit="10" pointer-events="all" style="fill: rgb(0, 0, 0); stroke: rgb(0, 0, 0);"/></g></g><g data-cell-id="edge6"><g transform="translate(0.5,0.5)"><path d="M 340 480 L 340 503.63" fill="none" stroke="#000000" stroke-miterlimit="10" pointer-events="stroke" style="stroke: rgb(0, 0, 0);"/><path d="M 340 508.88 L 336.5 501.88 L 340 503.63 L 343.5 501.88 Z" fill="#000000" stroke="#000000" stroke-miterlimit="10" pointer-events="all" style="fill: rgb(0, 0, 0); stroke: rgb(0, 0, 0);"/></g></g><g data-cell-id="edge7"><g transform="translate(0.5,0.5)"><path d="M 340 570 L 340 583.63" fill="none" stroke="#000000" stroke-miterlimit="10" pointer-events="stroke" style="stroke: rgb(0, 0, 0);"/><path d="M 340 588.88 L 336.5 581.88 L 340 583.63 L 343.5 581.88 Z" fill="#000000" stroke="#000000" stroke-miterlimit="10" pointer-events="all" style="fill: rgb(0, 0, 0); stroke: rgb(0, 0, 0);"/></g></g><g data-cell-id="edge8"><g transform="translate(0.5,0.5)"><path d="M 340 650 L 340 673.63" fill="none" stroke="#000000" stroke-miterlimit="10" pointer-events="stroke" style="stroke: rgb(0, 0, 0);"/><path d="M 340 678.88 L 336.5 671.88 L 340 673.63 L 343.5 671.88 Z" fill="#000000" stroke="#000000" stroke-miterlimit="10" pointer-events="all" style="fill: rgb(0, 0, 0); stroke: rgb(0, 0, 0);"/></g></g><g data-cell-id="edge9"><g transform="translate(0.5,0.5)"><path d="M 340 730 L 340 743.63" fill="none" stroke="#000000" stroke-miterlimit="10" pointer-events="stroke" style="stroke: rgb(0, 0, 0);"/><path d="M 340 748.88 L 336.5 741.88 L 340 743.63 L 343.5 741.88 Z" fill="#000000" stroke="#000000" stroke-miterlimit="10" pointer-events="all" style="fill: rgb(0, 0, 0); stroke: rgb(0, 0, 0);"/></g></g><g data-cell-id="edge10"><g transform="translate(0.5,0.5)"><path d="M 340 800 L 340 813.63" fill="none" stroke="#000000" stroke-miterlimit="10" pointer-events="stroke" style="stroke: rgb(0, 0, 0);"/><path d="M 340 818.88 L 336.5 811.88 L 340 813.63 L 343.5 811.88 Z" fill="#000000" stroke="#000000" stroke-miterlimit="10" pointer-events="all" style="fill: rgb(0, 0, 0); stroke: rgb(0, 0, 0);"/></g></g><g data-cell-id="edge11"><g transform="translate(0.5,0.5)"><path d="M 410 860 L 483.63 860" fill="none" stroke="#000000" stroke-miterlimit="10" pointer-events="stroke" style="stroke: rgb(0, 0, 0);"/><path d="M 488.88 860 L 481.88 863.5 L 483.63 860 L 481.88 856.5 Z" fill="#000000" stroke="#000000" stroke-miterlimit="10" pointer-events="all" style="fill: rgb(0, 0, 0); stroke: rgb(0, 0, 0);"/></g><g><g fill="#000000" font-family="Helvetica" text-anchor="middle" font-size="12px" style="fill: rgb(0, 0, 0);"><rect fill="#ffffff" stroke="none" x="444" y="854" width="14" height="15" stroke-width="0" style="fill: rgb(255, 255, 255);"/><text x="450" y="865">否</text></g></g></g><g data-cell-id="edge12"><g transform="translate(0.5,0.5)"><path d="M 540 835 Q 540 800 475 800 Q 410 800 379.19 835.21" fill="none" stroke="#000000" stroke-miterlimit="10" stroke-dasharray="3 3" pointer-events="stroke" style="stroke: rgb(0, 0, 0);"/><path d="M 375.74 839.16 L 377.71 831.59 L 379.19 835.21 L 382.98 836.2 Z" fill="#000000" stroke="#000000" stroke-miterlimit="10" pointer-events="all" style="fill: rgb(0, 0, 0); stroke: rgb(0, 0, 0);"/></g></g><g data-cell-id="edge13"><g transform="translate(0.5,0.5)"><path d="M 340 900 L 340 923.63" fill="none" stroke="#000000" stroke-miterlimit="10" pointer-events="stroke" style="stroke: rgb(0, 0, 0);"/><path d="M 340 928.88 L 336.5 921.88 L 340 923.63 L 343.5 921.88 Z" fill="#000000" stroke="#000000" stroke-miterlimit="10" pointer-events="all" style="fill: rgb(0, 0, 0); stroke: rgb(0, 0, 0);"/></g><g><g fill="#000000" font-family="Helvetica" text-anchor="middle" font-size="12px" style="fill: rgb(0, 0, 0);"><rect fill="#ffffff" stroke="none" x="334" y="909" width="14" height="15" stroke-width="0" style="fill: rgb(255, 255, 255);"/><text x="340" y="920">是</text></g></g></g><g data-cell-id="edge14"><g transform="translate(0.5,0.5)"><path d="M 340 990 L 340 1003.63" fill="none" stroke="#000000" stroke-miterlimit="10" pointer-events="stroke" style="stroke: rgb(0, 0, 0);"/><path d="M 340 1008.88 L 336.5 1001.88 L 340 1003.63 L 343.5 1001.88 Z" fill="#000000" stroke="#000000" stroke-miterlimit="10" pointer-events="all" style="fill: rgb(0, 0, 0); stroke: rgb(0, 0, 0);"/></g></g><g data-cell-id="edge15"><g transform="translate(0.5,0.5)"><path d="M 340 1070 L 340 1083.63" fill="none" stroke="#000000" stroke-miterlimit="10" pointer-events="stroke" style="stroke: rgb(0, 0, 0);"/><path d="M 340 1088.88 L 336.5 1081.88 L 340 1083.63 L 343.5 1081.88 Z" fill="#000000" stroke="#000000" stroke-miterlimit="10" pointer-events="all" style="fill: rgb(0, 0, 0); stroke: rgb(0, 0, 0);"/></g></g><g data-cell-id="edge16"><g><path d="M 340 1150 L 340 1161.76" fill="none" stroke="#82b366" stroke-width="2" stroke-miterlimit="10" pointer-events="stroke" style="stroke: rgb(130, 179, 102);"/><path d="M 340 1167.76 L 336 1159.76 L 340 1161.76 L 344 1159.76 Z" fill="#82b366" stroke="#82b366" stroke-width="2" stroke-miterlimit="10" pointer-events="all" style="fill: rgb(130, 179, 102); stroke: rgb(130, 179, 102);"/></g></g><g data-cell-id="note1"><g transform="translate(0.5,0.5)"><rect x="500" y="215" width="120" height="30" fill="none" stroke="none" pointer-events="all"/></g><g><g fill="#9673a6" font-family="Helvetica" font-weight="bold" font-size="12px" style="fill: rgb(150, 115, 166);"><text x="502" y="233">插件化封装</text></g></g></g><g data-cell-id="note2"><g transform="translate(0.5,0.5)"><rect x="460" y="690" width="100" height="30" fill="none" stroke="none" pointer-events="all"/></g><g><g fill="#b85450" font-family="Helvetica" font-weight="bold" font-size="12px" style="fill: rgb(184, 84, 80);"><text x="462" y="708">监听阶段</text></g></g></g><g data-cell-id="note3"><g transform="translate(0.5,0.5)"><rect x="470" y="1105" width="100" height="30" fill="none" stroke="none" pointer-events="all"/></g><g><g fill="#b85450" font-family="Helvetica" font-weight="bold" font-size="12px" style="fill: rgb(184, 84, 80);"><text x="472" y="1123">内存优化</text></g></g></g><g data-cell-id="box1"><g transform="translate(0.5,0.5)"><rect x="500" y="130" width="180" height="70" rx="10.5" ry="10.5" fill="#e1d5e7" stroke="#9673a6" pointer-events="all" style="fill: rgb(225, 213, 231); stroke: rgb(150, 115, 166);"/></g><g><g fill="#000000" font-family="Helvetica" font-size="11px" style="fill: rgb(0, 0, 0);"><text x="510" y="156.5">优化点1：模块化</text><text x="510" y="169.5">将指令封装为插件</text><text x="510" y="182.5">职责分离，易于维护</text></g></g></g><g data-cell-id="box2"><g transform="translate(0.5,0.5)"><rect x="500" y="1010" width="180" height="80" rx="12" ry="12" fill="#f8cecc" stroke="#b85450" pointer-events="all" style="fill: rgb(248, 206, 204); stroke: rgb(184, 84, 80);"/></g><g><g fill="#000000" font-family="Helvetica" font-size="11px" style="fill: rgb(0, 0, 0);"><text x="510" y="1035">优化点2：内存管理</text><text x="510" y="1048">stop() 停止观察</text><text x="510" y="1061">防止内存泄漏</text><text x="510" y="1074">提升性能</text></g></g></g><g data-cell-id="arrow1"><g transform="translate(0.5,0.5)"><path d="M 500 188.4 L 461.55 198.4" fill="none" stroke="#9673a6" stroke-miterlimit="10" stroke-dasharray="3 3" pointer-events="stroke" style="stroke: rgb(150, 115, 166);"/><path d="M 456.47 199.72 L 462.36 194.57 L 461.55 198.4 L 464.12 201.34 Z" fill="#9673a6" stroke="#9673a6" stroke-miterlimit="10" pointer-events="all" style="fill: rgb(150, 115, 166); stroke: rgb(150, 115, 166);"/></g></g><g data-cell-id="arrow2"><g transform="translate(0.5,0.5)"><path d="M 500 1075.2 L 453.28 1088.28" fill="none" stroke="#b85450" stroke-miterlimit="10" stroke-dasharray="3 3" pointer-events="stroke" style="stroke: rgb(184, 84, 80);"/><path d="M 448.22 1089.7 L 454.02 1084.44 L 453.28 1088.28 L 455.9 1091.18 Z" fill="#b85450" stroke="#b85450" stroke-miterlimit="10" pointer-events="all" style="fill: rgb(184, 84, 80); stroke: rgb(184, 84, 80);"/></g></g></g></g></g></svg>