<?xml version="1.0" encoding="UTF-8"?>
<!DOCTYPE svg PUBLIC "-//W3C//DTD SVG 1.1//EN" "http://www.w3.org/Graphics/SVG/1.1/DTD/svg11.dtd">
<svg xmlns="http://www.w3.org/2000/svg" style="background: transparent; background-color: transparent; color-scheme: light;" xmlns:xlink="http://www.w3.org/1999/xlink" version="1.1" width="725px" height="777px" viewBox="0 0 725 777"><defs/><g><g data-cell-id="0"><g data-cell-id="1"><g data-cell-id="title"><g transform="translate(0.5,0.5)"><rect x="162" y="0" width="400" height="40" fill="none" stroke="none" pointer-events="all"/></g><g><g fill="#000000" font-family="Helvetica" font-weight="bold" text-anchor="middle" font-size="20px" style="fill: rgb(0, 0, 0);"><text x="362" y="26">Vue3 HTTP 请求三层架构流程图</text></g></g></g><g data-cell-id="component-layer"><g transform="translate(0.5,0.5)"><rect x="2" y="76" width="720" height="150" rx="22.5" ry="22.5" fill="#d5e8d4" stroke="#82b366" pointer-events="all" style="fill: rgb(213, 232, 212); stroke: rgb(130, 179, 102);"/></g><g><g fill="#000000" font-family="Helvetica" font-weight="bold" text-anchor="middle" font-size="14px" style="fill: rgb(0, 0, 0);"><text x="362" y="157">组件层 (HomeBanner.vue)</text></g></g></g><g data-cell-id="component-1"><g transform="translate(0.5,0.5)"><rect x="22" y="90" width="150" height="40" rx="6" ry="6" fill="#fff2cc" stroke="#d6b656" pointer-events="all" style="fill: rgb(255, 242, 204); stroke: rgb(214, 182, 86);"/></g><g><g fill="#000000" font-family="Helvetica" text-anchor="middle" font-size="12px" style="fill: rgb(0, 0, 0);"><text x="97" y="115">onMounted 触发</text></g></g></g><g data-cell-id="component-2"><g transform="translate(0.5,0.5)"><rect x="202" y="90" width="150" height="40" rx="6" ry="6" fill="#fff2cc" stroke="#d6b656" pointer-events="all" style="fill: rgb(255, 242, 204); stroke: rgb(214, 182, 86);"/></g><g><g fill="#000000" font-family="Helvetica" text-anchor="middle" font-size="12px" style="fill: rgb(0, 0, 0);"><text x="277" y="115">调用 getBanner()</text></g></g></g><g data-cell-id="component-3"><g transform="translate(0.5,0.5)"><rect x="382" y="90" width="150" height="40" rx="6" ry="6" fill="#fff2cc" stroke="#d6b656" pointer-events="all" style="fill: rgb(255, 242, 204); stroke: rgb(214, 182, 86);"/></g><g><g fill="#000000" font-family="Helvetica" text-anchor="middle" font-size="12px" style="fill: rgb(0, 0, 0);"><text x="457" y="115">await getBannerAPi()</text></g></g></g><g data-cell-id="component-4"><g transform="translate(0.5,0.5)"><rect x="541" y="146" width="170" height="50" rx="7.5" ry="7.5" fill="#fff2cc" stroke="#d6b656" pointer-events="all" style="fill: rgb(255, 242, 204); stroke: rgb(214, 182, 86);"/></g><g><g fill="#000000" font-family="Helvetica" text-anchor="middle" font-size="12px" style="fill: rgb(0, 0, 0);"><text x="626" y="169">res.result</text><text x="626" y="183">赋值给 bannerList</text></g></g></g><g data-cell-id="edge-c1"><g transform="translate(0.5,0.5)"><path d="M 172 110 Q 172 110 195.63 110" fill="none" stroke="#000000" stroke-miterlimit="10" pointer-events="stroke" style="stroke: rgb(0, 0, 0);"/><path d="M 200.88 110 L 193.88 113.5 L 195.63 110 L 193.88 106.5 Z" fill="#000000" stroke="#000000" stroke-miterlimit="10" pointer-events="all" style="fill: rgb(0, 0, 0); stroke: rgb(0, 0, 0);"/></g></g><g data-cell-id="edge-c2"><g transform="translate(0.5,0.5)"><path d="M 352 110 Q 352 110 375.63 110" fill="none" stroke="#000000" stroke-miterlimit="10" pointer-events="stroke" style="stroke: rgb(0, 0, 0);"/><path d="M 380.88 110 L 373.88 113.5 L 375.63 110 L 373.88 106.5 Z" fill="#000000" stroke="#000000" stroke-miterlimit="10" pointer-events="all" style="fill: rgb(0, 0, 0); stroke: rgb(0, 0, 0);"/></g></g><g data-cell-id="api-layer"><g transform="translate(0.5,0.5)"><rect x="2" y="240" width="720" height="80" rx="12" ry="12" fill="#dae8fc" stroke="#6c8ebf" pointer-events="all" style="fill: rgb(218, 232, 252); stroke: rgb(108, 142, 191);"/></g><g><g fill="#000000" font-family="Helvetica" font-weight="bold" text-anchor="middle" font-size="14px" style="fill: rgb(0, 0, 0);"><text x="362" y="286">API 层 (home.js)</text></g></g></g><g data-cell-id="api-1"><g transform="translate(0.5,0.5)"><rect x="212" y="260" width="300" height="45" rx="6.75" ry="6.75" fill="#e1d5e7" stroke="#9673a6" pointer-events="all" style="fill: rgb(225, 213, 231); stroke: rgb(150, 115, 166);"/></g><g><g fill="#000000" font-family="Helvetica" text-anchor="middle" font-size="12px" style="fill: rgb(0, 0, 0);"><text x="362" y="280.5">getBannerAPi()</text><text x="362" y="294.5">httpInstance({ url: '/home/banner' })</text></g></g></g><g data-cell-id="edge-ca"><g transform="translate(0.5,0.5)"><path d="M 457 130 Q 457 195 409.5 195 Q 362 195 362 253.63" fill="none" stroke="#000000" stroke-miterlimit="10" pointer-events="stroke" style="stroke: rgb(0, 0, 0);"/><path d="M 362 258.88 L 358.5 251.88 L 362 253.63 L 365.5 251.88 Z" fill="#000000" stroke="#000000" stroke-miterlimit="10" pointer-events="all" style="fill: rgb(0, 0, 0); stroke: rgb(0, 0, 0);"/></g><g><g fill="#000000" font-family="Helvetica" text-anchor="middle" font-size="11px" style="fill: rgb(0, 0, 0);"><rect fill="#ffffff" stroke="none" x="398" y="189" width="24" height="14" stroke-width="0" style="fill: rgb(255, 255, 255);"/><text x="409" y="199.5">调用</text></g></g></g><g data-cell-id="http-layer"><g transform="translate(0.5,0.5)"><rect x="2" y="354" width="720" height="140" rx="21" ry="21" fill="#f8cecc" stroke="#b85450" pointer-events="all" style="fill: rgb(248, 206, 204); stroke: rgb(184, 84, 80);"/></g><g><g fill="#000000" font-family="Helvetica" font-weight="bold" text-anchor="middle" font-size="14px" style="fill: rgb(0, 0, 0);"><text x="362" y="430">HTTP 层 (http.js)</text></g></g></g><g data-cell-id="http-1"><g transform="translate(0.5,0.5)"><rect x="42" y="360" width="165" height="56" rx="8.4" ry="8.4" fill="#ffe6cc" stroke="#d79b00" pointer-events="all" style="fill: rgb(255, 230, 204); stroke: rgb(215, 155, 0);"/></g><g><g fill="#000000" font-family="Helvetica" text-anchor="middle" font-size="12px" style="fill: rgb(0, 0, 0);"><text x="124.5" y="386">请求拦截器</text><text x="124.5" y="400">config =&gt; config</text></g></g></g><g data-cell-id="http-2"><g transform="translate(0.5,0.5)"><rect x="153" y="439" width="140" height="45" rx="6.75" ry="6.75" fill="#ffe6cc" stroke="#d79b00" pointer-events="all" style="fill: rgb(255, 230, 204); stroke: rgb(215, 155, 0);"/></g><g><g fill="#000000" font-family="Helvetica" font-weight="bold" text-anchor="middle" font-size="12px" style="fill: rgb(0, 0, 0);"><text x="223" y="459.5">发送 HTTP 请求</text><text x="223" y="473.5">GET /home/banner</text></g></g></g><g data-cell-id="http-3"><g transform="translate(0.5,0.5)"><rect x="422" y="370" width="260" height="90" rx="13.5" ry="13.5" fill="#ffe6cc" stroke="#d79b00" pointer-events="all" style="fill: rgb(255, 230, 204); stroke: rgb(215, 155, 0);"/></g><g><g fill="#000000" font-family="Helvetica" font-weight="bold" text-anchor="middle" font-size="12px" style="fill: rgb(0, 0, 0);"><text x="552" y="413">响应拦截器\nresponse.data</text><text x="552" y="427">（自动解包）</text></g></g></g><g data-cell-id="edge-ah1"><g transform="translate(0.5,0.5)"><path d="M 362 305 Q 362 332.5 243.25 332.5 Q 124.5 332.5 124.5 353.63" fill="none" stroke="#000000" stroke-miterlimit="10" pointer-events="stroke" style="stroke: rgb(0, 0, 0);"/><path d="M 124.5 358.88 L 121 351.88 L 124.5 353.63 L 128 351.88 Z" fill="#000000" stroke="#000000" stroke-miterlimit="10" pointer-events="all" style="fill: rgb(0, 0, 0); stroke: rgb(0, 0, 0);"/></g></g><g data-cell-id="edge-h1"><g transform="translate(0.5,0.5)"><path d="M 124.5 416 Q 124.5 427.5 173.75 427.5 Q 223 427.5 223 432.63" fill="none" stroke="#000000" stroke-miterlimit="10" pointer-events="stroke" style="stroke: rgb(0, 0, 0);"/><path d="M 223 437.88 L 219.5 430.88 L 223 432.63 L 226.5 430.88 Z" fill="#000000" stroke="#000000" stroke-miterlimit="10" pointer-events="all" style="fill: rgb(0, 0, 0); stroke: rgb(0, 0, 0);"/></g></g><g data-cell-id="server"><g transform="translate(0.5,0.5)"><ellipse cx="323" cy="559.5" rx="169" ry="36.5" fill="#f5f5f5" stroke="#666666" pointer-events="all" style="fill: rgb(245, 245, 245); stroke: rgb(102, 102, 102);"/></g><g><g fill="#000000" font-family="Helvetica" font-weight="bold" text-anchor="middle" font-size="13px" style="fill: rgb(0, 0, 0);"><text x="323" y="557">服务器</text><text x="323" y="573">pcapi-xiaotuxian-front-devtest.itheima.net</text></g></g></g><g data-cell-id="edge-hs"><g transform="translate(0.5,0.5)"><path d="M 181 484 Q 181 503.5 220.5 503.5 Q 260 503.5 259.98 519.27" fill="none" stroke="#000000" stroke-miterlimit="10" pointer-events="stroke" style="stroke: rgb(0, 0, 0);"/><path d="M 259.97 524.52 L 256.48 517.51 L 259.98 519.27 L 263.48 517.52 Z" fill="#000000" stroke="#000000" stroke-miterlimit="10" pointer-events="all" style="fill: rgb(0, 0, 0); stroke: rgb(0, 0, 0);"/></g><g><g fill="#000000" font-family="Helvetica" text-anchor="middle" font-size="11px" style="fill: rgb(0, 0, 0);"><rect fill="#ffffff" stroke="none" x="210" y="498" width="24" height="14" stroke-width="0" style="fill: rgb(255, 255, 255);"/><text x="221.5" y="508">请求</text></g></g></g><g data-cell-id="edge-sr"><g transform="translate(0.5,0.5)"><path d="M 386.03 525.63 Q 386 491.5 469 491.5 Q 552 491.5 552 466.37" fill="none" stroke="#ff0000" stroke-miterlimit="10" pointer-events="stroke" style="stroke: rgb(255, 0, 0);"/><path d="M 552 461.12 L 555.5 468.12 L 552 466.37 L 548.5 468.12 Z" fill="#ff0000" stroke="#ff0000" stroke-miterlimit="10" pointer-events="all" style="fill: rgb(255, 0, 0); stroke: rgb(255, 0, 0);"/></g><g><g fill="#ff0000" font-family="Helvetica" text-anchor="middle" font-size="11px" style="fill: rgb(255, 0, 0);"><rect fill="#ffffff" stroke="none" x="382" y="486" width="172" height="14" stroke-width="0" style="fill: rgb(255, 255, 255);"/><text x="467.87" y="496">返回\n{ data: {...}, status, headers }</text></g></g></g><g data-cell-id="edge-back1"><g transform="translate(0.5,0.5)"><path d="M 679 460 Q 679 462 684 462 Q 689 462 689 328.5 Q 689 195 629.37 195" fill="none" stroke="#00cc00" stroke-miterlimit="10" pointer-events="stroke" style="stroke: rgb(0, 204, 0);"/><path d="M 624.12 195 L 631.12 191.5 L 629.37 195 L 631.12 198.5 Z" fill="#00cc00" stroke="#00cc00" stroke-miterlimit="10" pointer-events="all" style="fill: rgb(0, 204, 0); stroke: rgb(0, 204, 0);"/></g><g><g fill="#00cc00" font-family="Helvetica" text-anchor="middle" font-size="11px" style="fill: rgb(0, 204, 0);"><rect fill="#ffffff" stroke="none" x="654" y="238" width="72" height="27" stroke-width="0" style="fill: rgb(255, 255, 255);"/><text x="689" y="248">返回</text><text x="689" y="261">{ code, result }</text></g></g></g><g data-cell-id="legend"><g transform="translate(0.5,0.5)"><rect x="0" y="576" width="200" height="30" fill="none" stroke="none" pointer-events="all"/></g><g><g fill="#000000" font-family="Helvetica" font-weight="bold" font-size="16px" style="fill: rgb(0, 0, 0);"><text x="2" y="598">数据流转说明</text></g></g></g><g data-cell-id="legend-1"><g transform="translate(0.5,0.5)"><rect x="0" y="604" width="350" height="20" fill="none" stroke="none" pointer-events="all"/></g><g><g fill="#000000" font-family="Helvetica" font-size="12px" style="fill: rgb(0, 0, 0);"><text x="2" y="622">1. onMounted 触发请求</text></g></g></g><g data-cell-id="legend-2"><g transform="translate(0.5,0.5)"><rect x="2" y="623" width="350" height="20" fill="none" stroke="none" pointer-events="all"/></g><g><g fill="#000000" font-family="Helvetica" font-size="12px" style="fill: rgb(0, 0, 0);"><text x="4" y="641">2. 组件调用 API 层函数</text></g></g></g><g data-cell-id="legend-3"><g transform="translate(0.5,0.5)"><rect x="1" y="644" width="350" height="20" fill="none" stroke="none" pointer-events="all"/></g><g><g fill="#000000" font-family="Helvetica" font-size="12px" style="fill: rgb(0, 0, 0);"><text x="3" y="662">3. API 层使用 httpInstance 发送请求</text></g></g></g><g data-cell-id="legend-4"><g transform="translate(0.5,0.5)"><rect x="0" y="667" width="350" height="20" fill="none" stroke="none" pointer-events="all"/></g><g><g fill="#000000" font-family="Helvetica" font-size="12px" style="fill: rgb(0, 0, 0);"><text x="2" y="685">4. 请求拦截器处理（可加 token）</text></g></g></g><g data-cell-id="legend-5"><g transform="translate(0.5,0.5)"><rect x="2" y="689" width="350" height="20" fill="none" stroke="none" pointer-events="all"/></g><g><g fill="#000000" font-family="Helvetica" font-size="12px" style="fill: rgb(0, 0, 0);"><text x="4" y="707">5. 服务器返回完整 axios response</text></g></g></g><g data-cell-id="legend-6"><g transform="translate(0.5,0.5)"><rect x="1" y="709" width="350" height="20" fill="none" stroke="none" pointer-events="all"/></g><g><g fill="#000000" font-family="Helvetica" font-size="12px" style="fill: rgb(0, 0, 0);"><text x="3" y="727">6. 响应拦截器自动解包 response.data</text></g></g></g><g data-cell-id="legend-7"><g transform="translate(0.5,0.5)"><rect x="1" y="735" width="350" height="20" fill="none" stroke="none" pointer-events="all"/></g><g><g fill="#000000" font-family="Helvetica" font-size="12px" style="fill: rgb(0, 0, 0);"><text x="3" y="753">7. 组件直接使用 res.result（省略 .data）</text></g></g></g><g data-cell-id="legend-8"><g transform="translate(0.5,0.5)"><rect x="1" y="756" width="350" height="20" fill="none" stroke="none" pointer-events="all"/></g><g><g fill="#000000" font-family="Helvetica" font-size="12px" style="fill: rgb(0, 0, 0);"><text x="3" y="774">8. Vue 响应式系统触发视图更新</text></g></g></g><g data-cell-id="advantage"><g transform="translate(0.5,0.5)"><rect x="402" y="610" width="200" height="30" fill="none" stroke="none" pointer-events="all"/></g><g><g fill="#000000" font-family="Helvetica" font-weight="bold" font-size="16px" style="fill: rgb(0, 0, 0);"><text x="404" y="632">架构优势</text></g></g></g><g data-cell-id="adv-1"><g transform="translate(0.5,0.5)"><rect x="402" y="645" width="320" height="20" fill="none" stroke="none" pointer-events="all"/></g><g><g fill="#000000" font-family="Helvetica" font-size="12px" style="fill: rgb(0, 0, 0);"><text x="404" y="663">✓ 职责分离，每层专注自己的事</text></g></g></g><g data-cell-id="adv-2"><g transform="translate(0.5,0.5)"><rect x="402" y="670" width="320" height="20" fill="none" stroke="none" pointer-events="all"/></g><g><g fill="#000000" font-family="Helvetica" font-size="12px" style="fill: rgb(0, 0, 0);"><text x="404" y="688">✓ 复用性强，httpInstance 全局共享</text></g></g></g><g data-cell-id="adv-3"><g transform="translate(0.5,0.5)"><rect x="402" y="695" width="320" height="20" fill="none" stroke="none" pointer-events="all"/></g><g><g fill="#000000" font-family="Helvetica" font-size="12px" style="fill: rgb(0, 0, 0);"><text x="404" y="713">✓ 易于维护，baseURL 统一配置</text></g></g></g><g data-cell-id="adv-4"><g transform="translate(0.5,0.5)"><rect x="402" y="720" width="320" height="20" fill="none" stroke="none" pointer-events="all"/></g><g><g fill="#000000" font-family="Helvetica" font-size="12px" style="fill: rgb(0, 0, 0);"><text x="404" y="738">✓ 统一拦截，token/错误集中处理</text></g></g></g><g data-cell-id="adv-5"><g transform="translate(0.5,0.5)"><rect x="402" y="745" width="320" height="20" fill="none" stroke="none" pointer-events="all"/></g><g><g fill="#000000" font-family="Helvetica" font-size="12px" style="fill: rgb(0, 0, 0);"><text x="404" y="763">✓ 代码清晰，组件不关心请求细节</text></g></g></g></g></g></g></svg>